<svg xmlns="http://www.w3.org/2000/svg" viewBox="0 0 128 128">
  <path fill="#9B4F96" d="M117.5 33.5l.3-.2c-.6-1.1-1.5-2.1-2.4-2.6L67.1 2.9c-.8-.5-1.9-.7-3.1-.7-1.2 0-2.3.3-3.1.7l-48 27.9c-1.7 1-2.9 3.5-2.9 5.4v55.7c0 1.1.2 2.3.9 3.4l-.2.1c.5.8 1.2 1.5 1.9 1.9l48.2 27.9c.8.5 1.9.7 3.1.7 1.2 0 2.3-.3 3.1-.7l48-27.9c1.7-1 2.9-3.5 2.9-5.4V36.1c.1-.8 0-1.7-.4-2.6zM82 66v-4h5v-5h5v5h5v4h-5v5h-5v-5h-5zm17.9-17.9c2.4-2.4 5.7-3.8 9.1-3.8s6.7 1.4 9.1 3.8c2.4 2.4 3.8 5.7 3.8 9.1s-1.4 6.7-3.8 9.1c-2.4 2.4-5.7 3.8-9.1 3.8s-6.7-1.4-9.1-3.8c-2.4-2.4-3.8-5.7-3.8-9.1s1.4-6.7 3.8-9.1z"/>
</svg>