<svg viewBox="0 0 128 128" xmlns="http://www.w3.org/2000/svg">
  <g fill="#00ACD7">
    <path d="M108.203 64.368c-.804-.073-1.354.179-1.677.573-.366.389-.467.852-.556 1.315l-1.543 9.737c-.44.365-.072.658.072 1.022.219.438.585.658 1.023.803 2.701.657 5.18-.073 7.663-.657 3.139-.731 6.06-1.536 8.761-3.577 2.116-1.608 3.358-3.65 4.016-6.134.146-.584.146-1.17-.073-1.754-.439-.804-1.096-1.243-1.9-1.535-1.9-.95-4.016-1.17-6.133-1.17-3.139.073-5.474.877-7.883 1.68-1.17.292-1.97.512-1.97.512v-.219l.2.014zm-3.504-7.371c-1.755.365-3.432.584-5.262.73-.585.073-1.097.146-1.608.146-3.723.365-7.372.438-10.952-.073-4.309-.585-8.324-1.754-11.756-4.528-2.189-1.608-3.35-3.651-4.09-6.134-.145-.584-.145-1.17.073-1.754.44-.804 1.097-1.243 1.901-1.535 1.9-.95 4.016-1.17 6.133-1.17 6.278 0 11.245 2.044 16.142 4.894 1.9 1.095 3.504 2.554 5.043 4.016 1.023.95 2.189 1.243 3.139 1.754 1.17.657 2.116 1.17 2.116 1.17-.073.073-.147.073-.292.147a6.96 6.96 0 01-.586.337h-.001zm-50.792-11.536c0-.073 0-.073-.073 0l.073-.073v.073zm27.972 34.214c-7.882-.95-15.692-1.68-23.428-3.286-2.335-.438-4.6-1.022-6.79-1.9-2.116-.877-4.016-2.116-5.477-3.942-.657-.804-.437-1.754.22-2.482.657-.73 1.534-1.17 2.335-1.68.804-.512 1.754-.95 2.701-.657.511.146.95.438 1.388.804 3.943 3.431 8.98 4.6 14.088 5.476 7.29 1.243 14.577 1.096 21.867.073 4.163-.584 8.178-1.608 11.976-3.431 1.828-.876 3.504-1.9 4.893-3.211.804-.731 1.608-1.608 2.7-1.974 1.17-.365 2.263.073 3.067.95.439.511.512 1.17.366 1.827-.22.95-.951 1.608-1.608 2.263-1.316 1.242-2.994 2.19-4.602 3.065-2.628 1.315-5.329 2.337-8.177 3.066-5.111 1.242-10.296 1.9-15.553 2.19a46.493 46.493 0 01-1.9.073c.072-.148.072-.148.934-.22zm-23.429 9.054c-.511.657-1.096 1.17-1.754 1.608-1.754 1.17-3.797 1.389-5.77 1.608-2.554.292-5.035.22-7.444-.512-1.097-.365-2.19-.73-3.139-1.388-1.9-1.389-2.847-3.139-3.139-5.402-.146-.877-.146-1.754 0-2.628.22-1.899.877-3.577 1.901-5.183 2.335-3.577 5.988-5.476 9.93-6.79a62.457 62.457 0 019.345-2.116c8.689-1.389 17.454-1.608 26.216-.802 1.827.146 3.65.438 5.402.95.731.22 1.077.876 1.023 1.534-.073.731-.512 1.243-1.243 1.389-1.023.146-2.116.219-3.139.292-7.736.584-15.46.73-23.136 1.242-3.212.22-6.352.512-9.564.877-2.628.365-5.184.804-7.663 1.754-2.774 1.096-5.11 2.701-6.644 5.329-.73 1.23-.877 2.627-.657 4.016.219 1.315.95 2.19 2.116 2.774 1.535.73 3.212 1.097 4.966 1.17 3.504.219 6.06-1.97 7.81-4.964.657-1.096 1.17-2.263 1.608-3.504.511-1.608 1.68-2.336 3.286-2.263.95.073 1.608.512 1.9 1.462.073.073 0 .073 0 .146-.146.512-.365 1.024-.511 1.462-.366 1.097-.804 2.117-1.243 3.213-.001 0-.074 0-.147.073-.73.147-.146.147 0 .073zM15.777 65.828c-.073 0-.073 0 0 0-.073-.073 0-.073 0 0zm99.295-32.09c-5.916 0-11.83.073-17.746.292-1.9.073-3.797.146-5.623.292-.804.073-1.535-.219-1.974-.804-.293-.438-.366-.95-.293-1.462.146-.877.804-1.389 1.754-1.461 1.462-.146 2.92-.22 4.382-.293 9.2-.438 18.326-.584 27.531-.292 2.628.073 5.329.219 7.883.584 1.315.22 2.554.512 3.65 1.17 1.023.657 1.535 1.608 1.608 2.774.073 1.17-.365 2.117-1.096 2.92-2.408 2.774-5.622 4.235-8.98 5.256a6.348 6.348 0 00-1.169.512c.584.22 1.315.292 1.9.511 2.335.804 4.454 1.9 6.205 3.724.731.804 1.243 1.681 1.608 2.7.365 1.023.511 2.117.146 3.212-.365 1.096-.95 1.9-1.754 2.7-1.17 1.095-2.481 1.9-3.943 2.482-2.408 1.023-4.893 1.754-7.444 2.335-4.529 1.096-9.13 1.608-13.732 1.9-2.847.146-5.77.146-8.616.073-3.65-.073-7.225-.512-10.806-1.17-2.628-.511-5.183-1.17-7.517-2.408-1.608-.877-3.065-1.827-4.09-3.286-.657-.95-.803-2.044-.511-3.139.365-1.024 1.096-1.754 2.044-2.19.95-.511 1.973-.438 2.92.146.73.439 1.387.95 2.043 1.462 3.943 2.774 8.471 3.724 13.148 4.309 5.694.73 11.391.73 17.016-.073 3.723-.512 7.444-1.17 11.025-2.336 1.097-.365 2.19-.804 3.139-1.46.95-.66 1.461-1.536 1.534-2.775 0-1.023-.438-1.754-1.242-2.262-1.389-.95-2.994-1.39-4.6-1.755-3.65-.73-7.3-.877-11.026-.95-1.9-.073-3.797-.146-5.77-.073-1.243 0-2.409.219-3.578.584-1.242.366-2.482.877-3.577 1.535-1.68.95-3.358.95-4.6-.365-.657-.731-.877-1.608-.731-2.555.073-.438.22-.876.438-1.243.365-.584.95-.95 1.535-1.243 2.116-1.169 4.454-1.68 6.717-2.189.584-.073 1.096-.22 1.68-.293-.511-.219-.95-.438-1.462-.584-3.358-1.096-6.717-1.973-10.148-2.555-2.409-.438-4.82-.365-7.156.22-1.316.292-2.555.803-3.578 1.607-.585.511-1.097 1.096-1.535 1.754-.439.657-1.024 1.243-1.827 1.608-1.243.439-2.555.22-3.578-.438-1.023-.657-1.316-1.68-1.243-2.774.073-1.17.585-2.117 1.316-3.066.95-1.23 2.19-2.189 3.5-2.92 2.848-1.608 5.844-2.336 9.057-2.701 4.455-.584 8.91-.584 13.44-.438 3.138.073 6.278.438 9.345.95.73.146 1.535.292 2.262.511a1.433 1.433 0 01.292-.146c1.827-.731 3.65-1.389 5.622-1.608 1.608-.22 3.577-.512 5.329-.658 2.409-.146 5.912-.219 8.47-.219h.075zM25.268 45.478c-.73.146-1.388.292-2.116.438-.731.146-1.389.366-2.044.585-.73.292-1.462.803-1.9 1.461-.438.73-.219 1.608.44 2.117.584.438 1.242.584 1.973.584.73 0 1.462-.146 2.116-.438.731-.292 1.39-.658 1.974-1.17.584-.438 1.023-1.023 1.315-1.754.22-.438.293-.876.293-1.388 0-.073-.073-.073-.073-.146 0-.073 0-.073-.073-.073-.365-.22-.804-.365-1.243-.438-.219-.073-.438-.146-.657-.219 0 0-.146 0 0 .438h.073c0-.073-.073-.073-.073 0h-.073l.073-.074z"/>
  </g>
</svg>